<mxfile host="app.diagrams.net" agent="Mozilla/5.0 (Windows NT 10.0; Win64; x64; rv:136.0) Gecko/20100101 Firefox/136.0" version="26.1.0">
  <diagram name="Page-1" id="76RxO8kOraSOlL7Umvtb">
    <mxGraphModel dx="1076" dy="1249" grid="1" gridSize="10" guides="1" tooltips="1" connect="1" arrows="1" fold="1" page="1" pageScale="1" pageWidth="827" pageHeight="1169" math="0" shadow="0">
      <root>
        <mxCell id="0" />
        <mxCell id="1" parent="0" />
        <mxCell id="wZeFQ-SQ1kYjzPRbCw-j-22" value="" style="rounded=0;whiteSpace=wrap;html=1;" vertex="1" parent="1">
          <mxGeometry x="10" y="160" width="740" height="600" as="geometry" />
        </mxCell>
        <mxCell id="wZeFQ-SQ1kYjzPRbCw-j-1" value="Check Routes" style="ellipse;whiteSpace=wrap;html=1;fillColor=#fff2cc;strokeColor=#d6b656;" vertex="1" parent="1">
          <mxGeometry x="260" y="190" width="140" height="70" as="geometry" />
        </mxCell>
        <mxCell id="wZeFQ-SQ1kYjzPRbCw-j-2" value="Check Messages" style="ellipse;whiteSpace=wrap;html=1;fillColor=#fff2cc;strokeColor=#d6b656;" vertex="1" parent="1">
          <mxGeometry x="260" y="290" width="140" height="70" as="geometry" />
        </mxCell>
        <mxCell id="wZeFQ-SQ1kYjzPRbCw-j-3" value="View list of Users" style="ellipse;whiteSpace=wrap;html=1;fillColor=#fff2cc;strokeColor=#d6b656;" vertex="1" parent="1">
          <mxGeometry x="260" y="380" width="140" height="70" as="geometry" />
        </mxCell>
        <mxCell id="wZeFQ-SQ1kYjzPRbCw-j-4" value="Delete User" style="ellipse;whiteSpace=wrap;html=1;fillColor=#fff2cc;strokeColor=#d6b656;" vertex="1" parent="1">
          <mxGeometry x="260" y="560" width="140" height="70" as="geometry" />
        </mxCell>
        <mxCell id="wZeFQ-SQ1kYjzPRbCw-j-5" value="Delete Route" style="ellipse;whiteSpace=wrap;html=1;fillColor=#fff2cc;strokeColor=#d6b656;" vertex="1" parent="1">
          <mxGeometry x="260" y="660" width="140" height="70" as="geometry" />
        </mxCell>
        <mxCell id="wZeFQ-SQ1kYjzPRbCw-j-6" value="Update Personnal&lt;br&gt;Information" style="ellipse;whiteSpace=wrap;html=1;fillColor=#fff2cc;strokeColor=#d6b656;" vertex="1" parent="1">
          <mxGeometry x="260" y="470" width="140" height="70" as="geometry" />
        </mxCell>
        <mxCell id="wZeFQ-SQ1kYjzPRbCw-j-7" value="Sign In" style="ellipse;whiteSpace=wrap;html=1;fillColor=#a0522d;strokeColor=#6D1F00;fontColor=#ffffff;" vertex="1" parent="1">
          <mxGeometry x="580" y="430" width="140" height="70" as="geometry" />
        </mxCell>
        <mxCell id="wZeFQ-SQ1kYjzPRbCw-j-8" value="&lt;div&gt;Admin&lt;/div&gt;" style="shape=umlActor;verticalLabelPosition=bottom;verticalAlign=top;html=1;" vertex="1" parent="1">
          <mxGeometry x="30" y="430" width="30" height="60" as="geometry" />
        </mxCell>
        <mxCell id="wZeFQ-SQ1kYjzPRbCw-j-9" value="&amp;lt;&amp;lt; include &amp;gt;&amp;gt;" style="endArrow=open;endSize=12;dashed=1;html=1;rounded=0;entryX=0;entryY=0.5;entryDx=0;entryDy=0;exitX=1;exitY=0.5;exitDx=0;exitDy=0;" edge="1" parent="1" source="wZeFQ-SQ1kYjzPRbCw-j-6" target="wZeFQ-SQ1kYjzPRbCw-j-7">
          <mxGeometry x="0.1364" width="160" relative="1" as="geometry">
            <mxPoint x="260" y="520" as="sourcePoint" />
            <mxPoint x="420" y="520" as="targetPoint" />
            <Array as="points">
              <mxPoint x="500" y="505" />
              <mxPoint x="500" y="465" />
            </Array>
            <mxPoint as="offset" />
          </mxGeometry>
        </mxCell>
        <mxCell id="wZeFQ-SQ1kYjzPRbCw-j-11" value="&amp;lt;&amp;lt; include &amp;gt;&amp;gt;" style="endArrow=open;endSize=12;dashed=1;html=1;rounded=0;entryX=0;entryY=0;entryDx=0;entryDy=0;exitX=1;exitY=0.5;exitDx=0;exitDy=0;" edge="1" parent="1" source="wZeFQ-SQ1kYjzPRbCw-j-3" target="wZeFQ-SQ1kYjzPRbCw-j-7">
          <mxGeometry x="0.1086" width="160" relative="1" as="geometry">
            <mxPoint x="410" y="515" as="sourcePoint" />
            <mxPoint x="590" y="475" as="targetPoint" />
            <Array as="points">
              <mxPoint x="510" y="415" />
              <mxPoint x="510" y="440" />
            </Array>
            <mxPoint as="offset" />
          </mxGeometry>
        </mxCell>
        <mxCell id="wZeFQ-SQ1kYjzPRbCw-j-12" value="&amp;lt;&amp;lt; include &amp;gt;&amp;gt;" style="endArrow=open;endSize=12;dashed=1;html=1;rounded=0;entryX=0;entryY=1;entryDx=0;entryDy=0;exitX=1;exitY=0.5;exitDx=0;exitDy=0;" edge="1" parent="1" source="wZeFQ-SQ1kYjzPRbCw-j-4" target="wZeFQ-SQ1kYjzPRbCw-j-7">
          <mxGeometry x="-0.2163" width="160" relative="1" as="geometry">
            <mxPoint x="420" y="600" as="sourcePoint" />
            <mxPoint x="600" y="560" as="targetPoint" />
            <Array as="points">
              <mxPoint x="601" y="595" />
            </Array>
            <mxPoint as="offset" />
          </mxGeometry>
        </mxCell>
        <mxCell id="wZeFQ-SQ1kYjzPRbCw-j-13" value="&amp;lt;&amp;lt; include &amp;gt;&amp;gt;" style="endArrow=open;endSize=12;dashed=1;html=1;rounded=0;entryX=0.5;entryY=1;entryDx=0;entryDy=0;exitX=1;exitY=0.5;exitDx=0;exitDy=0;" edge="1" parent="1" source="wZeFQ-SQ1kYjzPRbCw-j-5" target="wZeFQ-SQ1kYjzPRbCw-j-7">
          <mxGeometry x="0.4157" width="160" relative="1" as="geometry">
            <mxPoint x="410" y="605" as="sourcePoint" />
            <mxPoint x="611" y="500" as="targetPoint" />
            <Array as="points">
              <mxPoint x="650" y="695" />
            </Array>
            <mxPoint as="offset" />
          </mxGeometry>
        </mxCell>
        <mxCell id="wZeFQ-SQ1kYjzPRbCw-j-14" value="&amp;lt;&amp;lt; include &amp;gt;&amp;gt;" style="endArrow=open;endSize=12;dashed=1;html=1;rounded=0;entryX=0.321;entryY=-0.021;entryDx=0;entryDy=0;exitX=1;exitY=0.5;exitDx=0;exitDy=0;entryPerimeter=0;" edge="1" parent="1" source="wZeFQ-SQ1kYjzPRbCw-j-2" target="wZeFQ-SQ1kYjzPRbCw-j-7">
          <mxGeometry x="0.0041" width="160" relative="1" as="geometry">
            <mxPoint x="410" y="605" as="sourcePoint" />
            <mxPoint x="611" y="500" as="targetPoint" />
            <Array as="points">
              <mxPoint x="625" y="325" />
            </Array>
            <mxPoint as="offset" />
          </mxGeometry>
        </mxCell>
        <mxCell id="wZeFQ-SQ1kYjzPRbCw-j-15" value="&amp;lt;&amp;lt; include &amp;gt;&amp;gt;" style="endArrow=open;endSize=12;dashed=1;html=1;rounded=0;entryX=0.67;entryY=0.032;entryDx=0;entryDy=0;exitX=1;exitY=0.5;exitDx=0;exitDy=0;entryPerimeter=0;" edge="1" parent="1" source="wZeFQ-SQ1kYjzPRbCw-j-1" target="wZeFQ-SQ1kYjzPRbCw-j-7">
          <mxGeometry x="-0.2519" width="160" relative="1" as="geometry">
            <mxPoint x="410" y="335" as="sourcePoint" />
            <mxPoint x="635" y="439" as="targetPoint" />
            <Array as="points">
              <mxPoint x="674" y="225" />
            </Array>
            <mxPoint as="offset" />
          </mxGeometry>
        </mxCell>
        <mxCell id="wZeFQ-SQ1kYjzPRbCw-j-16" value="" style="endArrow=none;html=1;rounded=0;entryX=0;entryY=0.5;entryDx=0;entryDy=0;" edge="1" parent="1" target="wZeFQ-SQ1kYjzPRbCw-j-3">
          <mxGeometry width="50" height="50" relative="1" as="geometry">
            <mxPoint x="90" y="470" as="sourcePoint" />
            <mxPoint x="370" y="490" as="targetPoint" />
            <Array as="points">
              <mxPoint x="170" y="470" />
              <mxPoint x="170" y="415" />
            </Array>
          </mxGeometry>
        </mxCell>
        <mxCell id="wZeFQ-SQ1kYjzPRbCw-j-17" value="" style="endArrow=none;html=1;rounded=0;entryX=0;entryY=0.5;entryDx=0;entryDy=0;" edge="1" parent="1" target="wZeFQ-SQ1kYjzPRbCw-j-2">
          <mxGeometry width="50" height="50" relative="1" as="geometry">
            <mxPoint x="90" y="460" as="sourcePoint" />
            <mxPoint x="240" y="350" as="targetPoint" />
            <Array as="points">
              <mxPoint x="160" y="460" />
              <mxPoint x="160" y="325" />
            </Array>
          </mxGeometry>
        </mxCell>
        <mxCell id="wZeFQ-SQ1kYjzPRbCw-j-18" value="" style="endArrow=none;html=1;rounded=0;entryX=0;entryY=0.5;entryDx=0;entryDy=0;" edge="1" parent="1" target="wZeFQ-SQ1kYjzPRbCw-j-1">
          <mxGeometry width="50" height="50" relative="1" as="geometry">
            <mxPoint x="90" y="450" as="sourcePoint" />
            <mxPoint x="220" y="240" as="targetPoint" />
            <Array as="points">
              <mxPoint x="150" y="450" />
              <mxPoint x="150" y="225" />
            </Array>
          </mxGeometry>
        </mxCell>
        <mxCell id="wZeFQ-SQ1kYjzPRbCw-j-19" value="" style="endArrow=none;html=1;rounded=0;entryX=0;entryY=0.5;entryDx=0;entryDy=0;" edge="1" parent="1" target="wZeFQ-SQ1kYjzPRbCw-j-6">
          <mxGeometry width="50" height="50" relative="1" as="geometry">
            <mxPoint x="90" y="480" as="sourcePoint" />
            <mxPoint x="260" y="530" as="targetPoint" />
            <Array as="points">
              <mxPoint x="170" y="480" />
              <mxPoint x="170" y="505" />
            </Array>
          </mxGeometry>
        </mxCell>
        <mxCell id="wZeFQ-SQ1kYjzPRbCw-j-20" value="" style="endArrow=none;html=1;rounded=0;entryX=0;entryY=0.5;entryDx=0;entryDy=0;" edge="1" parent="1" target="wZeFQ-SQ1kYjzPRbCw-j-4">
          <mxGeometry width="50" height="50" relative="1" as="geometry">
            <mxPoint x="90" y="490" as="sourcePoint" />
            <mxPoint x="250" y="585" as="targetPoint" />
            <Array as="points">
              <mxPoint x="160" y="490" />
              <mxPoint x="160" y="595" />
            </Array>
          </mxGeometry>
        </mxCell>
        <mxCell id="wZeFQ-SQ1kYjzPRbCw-j-21" value="" style="endArrow=none;html=1;rounded=0;entryX=0;entryY=0.5;entryDx=0;entryDy=0;" edge="1" parent="1" target="wZeFQ-SQ1kYjzPRbCw-j-5">
          <mxGeometry width="50" height="50" relative="1" as="geometry">
            <mxPoint x="90" y="500" as="sourcePoint" />
            <mxPoint x="240" y="647.5" as="targetPoint" />
            <Array as="points">
              <mxPoint x="150" y="500" />
              <mxPoint x="150" y="695" />
            </Array>
          </mxGeometry>
        </mxCell>
      </root>
    </mxGraphModel>
  </diagram>
</mxfile>
